<?xml version="1.0" encoding="iso-8859-1"?>
<!-- Generator: Adobe Illustrator 19.0.0, SVG Export Plug-In . SVG Version: 6.00 Build 0)  -->
<svg version="1.1" id="Capa_1" xmlns="http://www.w3.org/2000/svg" xmlns:xlink="http://www.w3.org/1999/xlink" x="0px" y="0px"
	 viewBox="0 0 512 512" style="enable-background:new 0 0 512 512;" xml:space="preserve">
<g>
	<g>
		<path d="M349.15,134.07c9.708-0.612,18.939-5.913,24.167-14.969c8.3-14.376,3.374-32.758-11.002-41.058
			c-14.376-8.3-32.758-3.374-41.058,11.002c-5.561,9.633-5.177,21.061,0.002,30.052L256,232.129l-65.26-113.032
			c5.179-8.992,5.563-20.42,0.002-30.052c-8.3-14.376-26.682-19.301-41.058-11.002c-14.376,8.3-19.301,26.682-11.002,41.058
			c5.229,9.056,14.458,14.357,24.167,14.969L0,228.093l70.108,46.289l5.033,83.859l162.074-93.573l-91.391,158.293l26.029,15.028
			l84.146-145.746l84.146,145.746l26.029-15.028l-91.389-158.293l162.074,93.573l5.033-83.86L512,228.092L349.15,134.07z"/>
	</g>
</g>
<g>
</g>
<g>
</g>
<g>
</g>
<g>
</g>
<g>
</g>
<g>
</g>
<g>
</g>
<g>
</g>
<g>
</g>
<g>
</g>
<g>
</g>
<g>
</g>
<g>
</g>
<g>
</g>
<g>
</g>
</svg>
