<svg id="Capa_1" enable-background="new 0 0 512 512" height="512" viewBox="0 0 512 512" width="512" xmlns="http://www.w3.org/2000/svg"><g><circle cx="70.128" cy="301.701" r="51.239"/><circle cx="400.321" cy="301.701" r="51.239"/><path d="m256.363 257.526v-63.421h-25.119c-31.337 0-61.962 9.345-87.96 26.842l-23.987 16.143c19.472 14.855 32.069 38.285 32.069 64.611 0 10.146-1.886 19.855-5.299 28.818h178.313c-3.413-8.963-5.299-18.672-5.299-28.818 0-16.282 4.833-31.449 13.114-44.175z"/><path d="m475.974 272.156c3.592 9.164 5.586 19.123 5.586 29.545 0 10.146-1.886 19.855-5.299 28.818h35.739v-35.082z"/><path d="m70.128 159.06h-70.128v77.948l9.855 10.287c14.878-16.466 36.386-26.832 60.273-26.832z"/></g></svg>